<svg xmlns="http://www.w3.org/2000/svg" xmlns:xlink="http://www.w3.org/1999/xlink" width="2048" zoomAndPan="magnify" viewBox="0 0 1536 1535.999932" height="2048" preserveAspectRatio="xMidYMid meet" version="1.0"><defs><clipPath id="6111052379"><path d="M 153.601562 153.601562 L 1382.101562 153.601562 L 1382.101562 1382.101562 L 153.601562 1382.101562 Z M 153.601562 153.601562 " clip-rule="nonzero"/></clipPath></defs><g clip-path="url(#6111052379)"><path fill="#d9d9d9" d="M 1382.386719 768.003906 C 1382.386719 1107.316406 1107.320312 1382.386719 768.003906 1382.386719 C 428.691406 1382.386719 153.625 1107.316406 153.625 768.003906 C 153.625 428.6875 428.691406 153.621094 768.003906 153.621094 C 1107.320312 153.621094 1382.386719 428.6875 1382.386719 768.003906 " fill-opacity="1" fill-rule="nonzero"/></g><path fill="#ffffff" d="M 986.25 573.785156 C 986.25 694.746094 888.179688 792.808594 767.21875 792.808594 C 646.253906 792.808594 548.1875 694.746094 548.1875 573.785156 C 548.1875 452.8125 646.253906 354.753906 767.21875 354.753906 C 888.179688 354.753906 986.25 452.8125 986.25 573.785156 " fill-opacity="1" fill-rule="nonzero"/><path fill="#ffffff" d="M 767.214844 1353.222656 C 922.203125 1353.222656 1063.773438 1295.800781 1171.859375 1201.109375 C 1138.308594 982.019531 1039.511719 829.976562 767.214844 829.976562 C 502.570312 829.976562 400.132812 982.664062 364.144531 1202.511719 C 472.03125 1296.375 612.984375 1353.222656 767.214844 1353.222656 " fill-opacity="1" fill-rule="nonzero"/></svg>